<svg xmlns="http://www.w3.org/2000/svg" viewBox="0 0 491.34 381.79" fill="#ffffff">
    <path d="M500.48,693c-67.15,0-134.3-.1-201.45.09-14.3,0-26-4.56-34.91-15.86a38.16,38.16,0,0,1-8.63-24q-.12-151,0-301.92c0-21.6,19-39.88,41.15-39.89q115.47-.06,230.94,0H704c24.65,0,42.55,17.89,42.56,42.49,0,98.48-.26,197,.19,295.43.11,23.73-17.6,44.11-43.83,43.85C635.45,692.55,568,693,500.48,693ZM561.8,442.83c-4.83,0-9.67-.06-14.5,0-7.08.11-8.66,1.68-9.7,8.58-1.78,11.82-3.72,23.62-5.6,35.42-2.43,15.25-4.93,30.48-7.28,45.74-.73,4.75.82,6.47,5.63,6.65,3.66.13,7.33.06,11,0,6.65,0,8-1.26,9-8,.76-5.26,1.43-10.53,2.3-15.76,1.26-7.55,2.11-8.19,9.72-8.17,3.16,0,6.34.17,9.49-.05,7.57-.52,14.73-2.37,21.05-6.86,10-7.15,13.7-17.27,14.88-29.13,1.51-15.28-7.15-26.27-22.5-27.73A229.43,229.43,0,0,0,561.8,442.83Zm-242.7,0c-4.5,0-9,0-13.49,0-8.54,0-9.7,1.26-11,9.91-2.41,15.74-5,31.44-7.6,47.15-1.75,10.81-3.54,21.61-5.23,32.43-.8,5.14.6,6.82,5.68,7,3.82.11,7.66,0,11.49,0,4.21,0,6.94-1.76,7.58-6.25.61-4.26,1.34-8.52,2.2-12.74,2.69-13.27.44-13.17,15.71-12.89,9.19.17,17.86-1.64,25.55-7,9.79-6.77,13.39-16.69,15-28,2.18-15.58-7.2-27.61-22.92-28.87C334.38,442.92,326.75,442.81,319.1,442.81Zm331.5,89.46c-.73,6.71,3,7.18,7.21,7,2.33-.09,4.66,0,7,0,6.56,0,8.6-1.87,9.6-8.22,1.19-7.55,2.49-15.08,3.7-22.62,1.44-9,3-18,4.2-27.07.74-5.6-.38-6.71-5.63-6.79-3.66-.05-7.33,0-11,0-2.59,0-5,.05-6.11,3.08-1,2.55-2.28.74-3.39,0-6.53-4.49-13.78-5.62-21.43-4.31-17.63,3-30.07,15.75-32.89,33.53-2.41,15.2,4.82,28.3,17.93,32.29C630.7,542.45,640.45,539.54,650.6,532.27Zm-243.07.41c-.41,6.89,4,6.74,8.36,6.63,2.67-.07,5.34,0,8-.07,4.3-.14,6.75-2.44,7.45-6.64.9-5.4,1.81-10.8,2.65-16.21,1.84-12,3.6-24,5.46-36,.69-4.46-1.27-6.09-5.57-5.89-3.66.18-7.33.1-11,0-2.63-.06-5.09.11-6.13,3.07-.8,2.25-1.81,1.16-2.94.35-8.42-6-17.68-6.3-27.17-3.58-16.53,4.76-28.32,20.51-27.84,39.44.42,16.38,11.77,26.69,28.16,26.57C394.43,540.35,400.66,536.92,407.53,532.68ZM480.59,509c-2.89-9.79-5.64-18.79-8.16-27.86-1.24-4.47-3.61-6.89-8.5-6.58-3.48.23-7,0-10.49,0-6.25.06-7.49,1.68-5.48,7.58,5.08,14.95,10.13,29.91,15.47,44.76,1.18,3.28.68,5.54-1.28,8.19-3.85,5.22-7.5,10.6-11,16.07-1.62,2.56-4.69,5.19-3,8.47s5.6,2,8.63,2.3c1.32.13,2.67-.11,4,0,6.51.76,10.82-1.92,14.42-7.45,8.91-13.65,18.36-26.95,27.58-40.4q10.74-15.63,21.47-31.28c1.31-1.92,3-3.81,1.69-6.33s-3.65-1.94-5.78-2c-3.16,0-6.35.22-9.49-.06-4.7-.41-7.74,1.47-10.31,5.41C494.11,489.52,487.51,498.86,480.59,509Zm213.85,30.3c10.95,0,11.3-.31,13.06-11q4.39-26.76,8.79-53.52,2-12,3.9-24.07c1-6-.36-7.67-6.32-7.82-3.16-.08-6.32,0-9.48,0-4,0-6.27,1.43-6.95,5.95-4.08,27.07-8.5,54.08-12.71,81.13-1.35,8.7-.64,9.37,8.22,9.36Z"
          transform="translate(-255.42 -311.42)"/>
    <path d="M564.12,486.8c-.76,0-2.09,0-3.41,0-2.67.1-3.55-1.12-3.07-3.71,1-5.21,1.91-10.43,2.66-15.68.4-2.86,1.83-4.1,4.63-4,1.33,0,2.66,0,4,0,8.09.22,11.58,2.65,12,8.28.57,8.45-2.94,13.33-10.72,14.72A58.69,58.69,0,0,1,564.12,486.8Z"
          transform="translate(-255.42 -311.42)"/>
    <path d="M321.89,486.81c-1.5,0-3,0-4.49,0-2.49.05-3.24-1.33-2.87-3.53.94-5.55,2-11.1,2.89-16.65.28-1.69,1.19-2.92,2.8-3.06,4.82-.42,9.65-.41,14.16,1.73,3.74,1.78,3.51,5.24,3.39,8.62-.18,5.2-2,9.36-7.06,11.62C327.89,486.83,324.87,486.64,321.89,486.81Z"
          transform="translate(-255.42 -311.42)"/>
    <path d="M638,521.67c-8,0-12.66-4.46-12.62-12.08,0-9.86,8-18,17.62-18,7.65,0,12.82,5.16,12.78,12.78C655.7,514.61,648.46,521.66,638,521.67Z"
          transform="translate(-255.42 -311.42)"/>
    <path d="M395,521.68c-8,0-12.57-4.46-12.57-12.14a18.14,18.14,0,0,1,17.71-17.89c7.39,0,13.48,5.73,13.36,12.61C413.29,514.34,405.46,521.71,395,521.68Z"
          transform="translate(-255.42 -311.42)"/>
</svg>